<?xml version="1.0" encoding="iso-8859-1"?>
<!-- Generator: Adobe Illustrator 19.0.0, SVG Export Plug-In . SVG Version: 6.00 Build 0)  -->
<svg version="1.1" id="Capa_1" xmlns="http://www.w3.org/2000/svg" xmlns:xlink="http://www.w3.org/1999/xlink" x="0px" y="0px"
	 viewBox="0 0 512 512" style="enable-background:new 0 0 512 512;" xml:space="preserve">
<g>
	<g>
		<g>
			<path d="M511.384,104.943c-1.236-2.989-4.15-4.94-7.384-4.944H347.312l-85.656-85.656c-3.124-3.123-8.188-3.123-11.312,0
				l-85.656,85.656H8c-3.234,0.004-6.148,1.955-7.384,4.944c-0.402,0.969-0.611,2.007-0.616,3.056v384
				c0.005,1.049,0.214,2.087,0.616,3.056c0.812,1.959,2.369,3.516,4.328,4.328c0.969,0.402,2.007,0.611,3.056,0.616h496
				c1.049-0.005,2.087-0.214,3.056-0.616c1.959-0.812,3.516-2.369,4.328-4.328c0.402-0.969,0.611-2.007,0.616-3.056v-384
				C511.995,106.95,511.786,105.912,511.384,104.943z M256,31.311l68.688,68.688H187.312L256,31.311z M484.688,115.999l-16,16
				H43.312l-16-16H484.688z M380.8,317.599c-2.844-2.133-6.756-2.133-9.6,0l-89.664,67.2l-99.2-129.696
				c-1.472-1.904-3.722-3.044-6.128-3.104c-2.416-0.039-4.725,0.995-6.304,2.824L48,398.239v-250.24h416v232L380.8,317.599z
				 M464,399.999v52H48v-29.064l127.672-150.192l97.976,128.112c2.665,3.486,7.64,4.175,11.152,1.544l91.2-68.4L464,399.999z
				 M16,127.311l16,16v313.376l-16,16V127.311z M27.312,483.999l16-16h425.376l16,16H27.312z M496,472.687l-16-16V143.311l16-16
				V472.687z"/>
			<path d="M328,179.999c-30.928,0-56,25.072-56,56c0.035,30.913,25.087,55.965,56,56c30.928,0,56-25.072,56-56
				C384,205.071,358.928,179.999,328,179.999z M328,275.999c-22.091,0-40-17.909-40-40c0.026-22.08,17.92-39.974,40-40
				c22.091,0,40,17.909,40,40S350.091,275.999,328,275.999z"/>
		</g>
	</g>
</g>
<g>
</g>
<g>
</g>
<g>
</g>
<g>
</g>
<g>
</g>
<g>
</g>
<g>
</g>
<g>
</g>
<g>
</g>
<g>
</g>
<g>
</g>
<g>
</g>
<g>
</g>
<g>
</g>
<g>
</g>
</svg>
