<svg id="Capa_1" enable-background="new 0 0 512 512" height="512" viewBox="0 0 512 512" width="512" xmlns="http://www.w3.org/2000/svg"><g><path d="m142.685 316.124c101.31 0 118.532-56.092 118.532-56.092-41.537-44.79-70.917-179.26-118.532-179.26s-76.995 134.47-118.532 179.26c0 0 17.222 56.092 118.532 56.092z" fill="#cde9fa"/><path d="m142.685 316.124c101.31 0 118.532-56.092 118.532-56.092-41.537-44.79-70.917-179.26-118.532-179.26s-76.995 134.47-118.532 179.26c0 0 17.222 56.092 118.532 56.092z" fill="#cde9fa"/><path d="m160.969 180.489c-12.982 30.372-27.696 64.797-40.945 79.083l-13.03 14.051 6.793 17.919c1.318 3.479 5.729 13.257 16.816 24.296 3.892.182 7.909.286 12.082.286 101.31 0 118.532-56.092 118.532-56.092-26.775-28.871-48.499-94.998-73.311-138.36-9.506 18.056-18.336 38.695-26.937 58.817z" fill="#a2ddfd"/><path d="m204.706 154.62c-24.46-.268-44.351 9.033-62.021 9.033s-37.561-9.301-62.021-9.033c-18.318 38.973-35.921 83.209-56.511 105.412 0 0 17.222 56.092 118.532 56.092 101.309 0 118.532-56.092 118.532-56.092-20.59-22.203-38.193-66.439-56.511-105.412z" fill="#88d37f"/><path d="m170.12 159.268c-3.091 7.05-6.136 14.167-9.151 21.222-12.982 30.372-27.696 64.797-40.945 79.083l-13.03 14.051 6.793 17.919c1.318 3.479 5.729 13.256 16.816 24.296 3.892.182 7.909.286 12.082.286 101.31 0 118.532-56.092 118.532-56.092-20.59-22.202-38.194-66.439-56.511-105.411-12.644-.141-24.059 2.277-34.586 4.646z" fill="#5ec682"/><path d="m379.749 316.124c-101.31 0-118.532-56.092-118.532-56.092 41.537-44.79 70.917-179.26 118.532-179.26s76.995 134.471 118.532 179.26c0 0-17.222 56.092-118.532 56.092z" fill="#cde9fa"/><path d="m379.749 316.124c-101.31 0-118.532-56.092-118.532-56.092 41.537-44.79 70.917-179.26 118.532-179.26s76.995 134.471 118.532 179.26c0 0-17.222 56.092-118.532 56.092z" fill="#cde9fa"/><path d="m361.465 180.489c12.982 30.372 27.696 64.797 40.945 79.083l13.03 14.051-6.793 17.919c-1.318 3.479-5.729 13.257-16.816 24.296-3.892.182-7.909.286-12.082.286-101.31 0-118.532-56.092-118.532-56.092 26.775-28.871 48.499-94.998 73.311-138.36 9.506 18.056 18.336 38.695 26.937 58.817z" fill="#a2ddfd"/><path d="m317.728 154.62c24.46-.268 44.351 9.033 62.021 9.033s37.561-9.301 62.021-9.033c18.318 38.973 35.921 83.209 56.511 105.412 0 0-17.222 56.092-118.532 56.092s-118.532-56.092-118.532-56.092c20.59-22.203 38.193-66.439 56.511-105.412z" fill="#88d37f"/><path d="m352.314 159.268c3.091 7.05 6.135 14.167 9.151 21.222 12.982 30.372 27.696 64.797 40.945 79.083l13.03 14.051-6.793 17.919c-1.318 3.479-5.729 13.256-16.816 24.296-3.892.182-7.909.286-12.082.286-101.309 0-118.532-56.092-118.532-56.092 20.59-22.202 38.194-66.439 56.511-105.411 12.644-.141 24.06 2.277 34.586 4.646z" fill="#5ec682"/><path d="m261.217 326.021c101.31 0 118.532-45.434 118.532-45.434-41.537-44.789-70.917-189.919-118.532-189.919s-76.995 145.13-118.532 189.919c0 0 17.223 45.434 118.532 45.434z" fill="#cde9fa"/><path d="m321.306 165.552c-17.617 2.262-30.844 11.722-60.089 11.722-29.246 0-42.472-9.46-60.089-11.722-19.017 42.656-37.13 92.053-58.443 115.035 0 0 17.223 45.434 118.532 45.434 101.31 0 118.532-45.434 118.532-45.434-21.313-22.982-39.425-72.379-58.443-115.035z" fill="#88d37f"/><ellipse cx="256" cy="334.272" fill="#cde9fa" rx="219.338" ry="92.328"/><g fill="#a2ddfd"><path d="m127.9 337.006c-9.322 0-18.64-2.397-26.944-7.192-3.587-2.071-4.816-6.658-2.745-10.245 2.07-3.588 6.658-4.815 10.245-2.745 11.988 6.922 26.907 6.918 38.933-.008 3.588-2.067 8.175-.833 10.242 2.756s.834 8.175-2.756 10.242c-8.324 4.794-17.651 7.192-26.975 7.192z"/><path d="m269.025 386.715c-9.323 0-18.64-2.396-26.946-7.192-3.587-2.071-4.816-6.658-2.745-10.245 2.07-3.589 6.656-4.815 10.245-2.745 11.988 6.922 26.907 6.92 38.933-.007 3.588-2.068 8.175-.833 10.242 2.756s.834 8.175-2.756 10.242c-8.323 4.793-17.651 7.191-26.973 7.191z"/><path d="m234.435 297.369c-9.324 0-18.641-2.397-26.946-7.193-3.587-2.071-4.816-6.658-2.745-10.245 2.069-3.589 6.659-4.815 10.245-2.745 11.987 6.922 26.906 6.921 38.933-.007 3.588-2.067 8.175-.834 10.242 2.756 2.067 3.589.834 8.175-2.756 10.242-8.323 4.794-17.651 7.192-26.973 7.192z"/><path d="m385.802 320.269c-9.324 0-18.641-2.398-26.946-7.193-3.587-2.071-4.816-6.658-2.745-10.245 2.07-3.588 6.659-4.815 10.245-2.745 11.987 6.922 26.906 6.921 38.933-.007 3.588-2.068 8.175-.833 10.242 2.756s.834 8.175-2.756 10.242c-8.324 4.793-17.652 7.192-26.973 7.192z"/></g><path d="m173.484 425.385c14.095-2.901 22.51-17.748 17.376-31.191-11.974-31.353-44.739-52.057-68.019-71.921-28.971-24.719-26.083-101.776-82.313-112.682-39.757-7.71-44.81 122.884-37.975 185.492 1.629 14.926 12.786 27.054 27.555 29.764 40.941 7.511 101.062 9.248 143.376.538z" fill="#cde9fa"/><path d="m148.902 429.119c-109.093-22.195-131.379-170.951-118.687-218.204-30.289 14.924-33.854 127.447-27.662 184.168 1.629 14.926 12.786 27.054 27.555 29.764 33.511 6.148 79.866 8.423 118.794 4.272z" fill="#a2ddfd"/><path d="m190.86 394.194c-11.974-31.353-44.739-52.057-68.019-71.921-13.985-11.933-20.547-36.062-29.918-59.058-35.696.602-66.56 12.478-88.603 10.982-5.638 39.831-5.235 89.111-1.767 120.886 1.629 14.926 12.786 27.054 27.555 29.764 40.942 7.512 101.062 9.248 143.376.539 14.095-2.902 22.51-17.748 17.376-31.192z" fill="#88d37f"/><path d="m148.902 429.119c-77.433-15.754-111.132-95.267-119.632-156.992-9.204 1.571-17.574 2.571-24.951 2.07-5.638 39.831-5.235 89.111-1.767 120.886 1.629 14.927 12.786 27.054 27.555 29.764 33.512 6.148 79.867 8.423 118.795 4.272z" fill="#5ec682"/><path d="m338.516 425.385c-14.095-2.901-22.51-17.748-17.376-31.191 11.974-31.353 44.74-52.057 68.02-71.921 28.971-24.719 26.083-101.776 82.313-112.682 39.757-7.711 44.809 122.883 37.975 185.491-1.629 14.926-12.786 27.054-27.555 29.764-40.943 7.512-101.063 9.249-143.377.539z" fill="#cde9fa"/><path d="m321.14 394.194c11.974-31.353 44.739-52.057 68.02-71.921 13.985-11.933 20.547-36.062 29.918-59.058 35.696.602 66.56 12.478 88.603 10.982 5.638 39.831 5.235 89.111 1.767 120.886-1.629 14.926-12.786 27.054-27.555 29.764-40.942 7.512-101.062 9.248-143.376.539-14.096-2.902-22.511-17.748-17.377-31.192z" fill="#88d37f"/><path d="m502.865 411.779c-76.544 7.488-115.275-59.13-109.15-94.109-1.432 1.681-2.942 3.227-4.556 4.603-23.28 19.864-56.046 40.568-68.02 71.921-5.134 13.444 3.281 28.29 17.376 31.191 42.314 8.709 102.434 6.973 143.376-.539 8.621-1.581 15.991-6.385 20.974-13.067z" fill="#5ec682"/></g></svg>