<?xml version="1.0" encoding="iso-8859-1"?>
<!-- Generator: Adobe Illustrator 19.0.0, SVG Export Plug-In . SVG Version: 6.00 Build 0)  -->
<svg version="1.1" id="Capa_1" xmlns="http://www.w3.org/2000/svg" xmlns:xlink="http://www.w3.org/1999/xlink" x="0px" y="0px"
	 viewBox="0 0 480 480" style="enable-background:new 0 0 480 480;" xml:space="preserve">
<g>
	<path style="fill:#5A5A60;" d="M347.44,138.88l-14.4-6.88l6.88-14.4l14.4,6.88L347.44,138.88z M318.56,125.12L304,118.24l6.88-14.4
		l14.4,6.88L318.56,125.12z M289.68,111.36l-14.48-6.88l6.88-14.4l14.48,6.88L289.68,111.36z M260.8,97.6l-14.48-6.88l6.88-14.4
		l14.48,6.88L260.8,97.6z M232,83.84l-14.48-6.88l6.48-14.4l14.48,6.88L232,83.84z M203.12,70.08l-14.56-6.88l6.88-14.4l14.48,7.2
		L203.12,70.08z"/>
	<path style="fill:#5A5A60;" d="M195.84,431.04l-8-14.08l14-8l8,14L195.84,431.04z M224,416l-8-14.4l14.08-8l8,14L224,416z
		 M251.92,400l-8-14l14-8l8,14.08L251.92,400z M280,384.72l-8-14l14.08-8l8,14L280,384.72z M308,369.36l-8-14.08l14-8l8,14
		L308,369.36z M336,353.92l-8-14l14-8l8,14L336,353.92z"/>
	<path style="fill:#5A5A60;" d="M240.095,262.246l6.878-14.446l14.446,6.878l-6.878,14.446L240.095,262.246z"/>
	<path style="fill:#5A5A60;" d="M124.546,207.2l6.878-14.446l14.446,6.878l-6.878,14.446L124.546,207.2z"/>
	<path style="fill:#5A5A60;" d="M153.464,220.959l6.878-14.446l14.446,6.878l-6.878,14.446L153.464,220.959z"/>
	<path style="fill:#5A5A60;" d="M269.014,276.006l6.878-14.446l14.446,6.878l-6.878,14.446L269.014,276.006z"/>
	<path style="fill:#5A5A60;" d="M270.089,200.705l14.018-7.713l7.713,14.018l-14.018,7.713L270.089,200.705z"/>
	<path style="fill:#5A5A60;" d="M129.906,277.759l14.018-7.713l7.713,14.018l-14.018,7.713L129.906,277.759z"/>
	<path style="fill:#5A5A60;" d="M197.2,240.8l6.48-13.6l-14.48-6.88l-6.88,14.4l13.92,6.64l-10.24,5.6l7.68,14l14.08-7.68l-7.76-14
		L197.2,240.8z"/>
	<path style="fill:#5A5A60;" d="M242.12,216.131l14.018-7.713l7.713,14.018l-14.018,7.713L242.12,216.131z"/>
	<path style="fill:#5A5A60;" d="M157.9,262.435l14.021-7.708l7.708,14.021l-14.021,7.708L157.9,262.435z"/>
	<path style="fill:#5A5A60;" d="M228.08,223.84l-14,7.68l2.8,5.12l-5.68,11.84l14.48,6.88l6.88-14.4l-1.28-0.64l4.48-2.48
		L228.08,223.84z"/>
</g>
<path style="fill:#EF9F35;" d="M191.28,84.64l-0.72-5.92l-26.08-4.8c-1.175-3.698-2.674-7.285-4.48-10.72l15.04-21.84l-3.6-4.64
	c-4.687-5.942-10.058-11.313-16-16l-4.64-3.6L128.8,32c-3.435-1.806-7.022-3.305-10.72-4.48l-4.8-26.08l-5.92-0.72
	c-7.543-0.96-15.177-0.96-22.72,0l-5.92,0.72l-4.8,26.08c-3.698,1.175-7.285,2.674-10.72,4.48L41.36,16.96l-4.64,3.6
	c-5.942,4.687-11.313,10.058-16,16l-3.6,4.64L32,63.2c-1.806,3.435-3.305,7.022-4.48,10.72l-26.08,4.8l-0.72,5.92
	c-0.96,7.543-0.96,15.177,0,22.72l0.72,5.92l26.08,4.8c1.175,3.698,2.674,7.285,4.48,10.72l-15.04,21.84l3.6,4.64
	c4.687,5.942,10.058,11.313,16,16l4.64,3.6l22-14.88c3.435,1.806,7.022,3.305,10.72,4.48l4.8,26.08l5.92,0.72
	c7.543,0.96,15.177,0.96,22.72,0l5.92-0.72l4.8-26.08c3.698-1.175,7.285-2.674,10.72-4.48l21.84,15.04l4.64-3.6
	c5.942-4.687,11.313-10.058,16-16l3.6-4.64l-14.88-22c1.806-3.435,3.305-7.022,4.48-10.72l26.08-4.8l0.72-5.92
	C192.24,99.817,192.24,92.183,191.28,84.64L191.28,84.64z M120,96c0,13.255-10.745,24-24,24s-24-10.745-24-24s10.745-24,24-24
	S120,82.745,120,96z"/>
<path style="fill:#F7D04F;" d="M479.28,228.64l-0.72-5.92l-26.08-4.8c-1.175-3.698-2.674-7.285-4.48-10.72l15.04-21.84l-3.6-4.64
	c-4.687-5.942-10.058-11.313-16-16l-4.64-3.6l-22,14.88c-3.435-1.806-7.022-3.305-10.72-4.48l-4.8-26.08l-5.92-0.72
	c-7.543-0.96-15.177-0.96-22.72,0l-5.92,0.72l-4.8,26.08c-3.698,1.175-7.285,2.674-10.72,4.48l-21.84-15.04l-4.64,3.6
	c-5.942,4.687-11.313,10.058-16,16l-3.6,4.64l14.88,22c-1.806,3.435-3.305,7.022-4.48,10.72l-26.08,4.8l-0.72,5.92
	c-0.96,7.543-0.96,15.177,0,22.72l0.72,5.92l26.08,4.8c1.175,3.698,2.674,7.285,4.48,10.72l-15.04,21.84l3.6,4.64
	c4.687,5.942,10.058,11.313,16,16l4.64,3.6l22-14.88c3.435,1.806,7.022,3.305,10.72,4.48l4.8,26.08l5.92,0.72
	c7.543,0.96,15.177,0.96,22.72,0l5.92-0.72l4.8-26.08c3.698-1.175,7.285-2.674,10.72-4.48l21.84,15.04l4.64-3.6
	c5.942-4.687,11.313-10.058,16-16l3.6-4.64l-14.88-22c1.806-3.435,3.305-7.022,4.48-10.72l26.08-4.8l0.72-5.92
	C480.24,243.817,480.24,236.183,479.28,228.64L479.28,228.64z M408,240c0,13.255-10.745,24-24,24s-24-10.745-24-24
	c0-13.255,10.745-24,24-24S408,226.745,408,240z"/>
<path style="fill:#63C8CD;" d="M191.28,372.64l-0.72-5.92l-26.08-4.8c-1.175-3.698-2.674-7.285-4.48-10.72l15.04-21.84l-3.6-4.64
	c-4.687-5.942-10.058-11.313-16-16l-4.64-3.6l-22,14.88c-3.435-1.806-7.022-3.305-10.72-4.48l-4.8-26.08l-5.92-0.72
	c-7.543-0.96-15.177-0.96-22.72,0l-5.92,0.72l-4.8,26.08c-3.698,1.175-7.285,2.674-10.72,4.48l-21.84-15.04l-4.64,3.6
	c-5.942,4.687-11.313,10.058-16,16l-3.6,4.64l14.88,22c-1.806,3.435-3.305,7.022-4.48,10.72l-26.08,4.8l-0.72,5.92
	c-0.96,7.543-0.96,15.177,0,22.72l0.72,5.92l26.08,4.8c1.175,3.698,2.674,7.285,4.48,10.72l-15.04,21.84l3.6,4.64
	c4.687,5.942,10.058,11.313,16,16l4.64,3.6l22-14.88c3.435,1.806,7.022,3.305,10.72,4.48l4.8,26.08l5.92,0.72
	c7.543,0.96,15.177,0.96,22.72,0l5.92-0.72l4.8-26.08c3.698-1.175,7.285-2.674,10.72-4.48l21.84,15.04l4.64-3.6
	c5.942-4.687,11.313-10.058,16-16l3.6-4.64l-14.88-22c1.806-3.435,3.305-7.022,4.48-10.72l26.08-4.8l0.72-5.92
	C192.24,387.817,192.24,380.183,191.28,372.64L191.28,372.64z M120,384c0,13.255-10.745,24-24,24s-24-10.745-24-24s10.745-24,24-24
	S120,370.745,120,384z"/>
<g>
</g>
<g>
</g>
<g>
</g>
<g>
</g>
<g>
</g>
<g>
</g>
<g>
</g>
<g>
</g>
<g>
</g>
<g>
</g>
<g>
</g>
<g>
</g>
<g>
</g>
<g>
</g>
<g>
</g>
</svg>
